<svg xmlns="http://www.w3.org/2000/svg" xmlns:xlink="http://www.w3.org/1999/xlink" width="502" height="156" viewBox="0 0 502 156">
  <defs>
    <clipPath id="clip-logo_dark">
      <rect width="502" height="156"/>
    </clipPath>
  </defs>
  <g id="logo_dark" clip-path="url(#clip-logo_dark)">
    <ellipse id="Ellipse_12" data-name="Ellipse 12" cx="12.659" cy="12.659" rx="12.659" ry="12.659" transform="translate(115.16 20.509)"/>
    <path id="Path_10" data-name="Path 10" d="M1672.262,2493.439c-5.76-.338-28.431,5.88-30.726,6.711s-4.5,3.169-3.764,6.219a4.336,4.336,0,0,0,3.764,3.274l24.057-5.73a11.7,11.7,0,0,1,5.418,0c2.916.712,10.621,5.73,10.621,5.73s1.794,1.572,1.794,3-1.794,2.723-1.794,2.723l-25.694,15.874s-2.718,2.112-3.471,4.363a6.8,6.8,0,0,0,.459,4.642l11.686,24.709s1.115,2.5.542,3.933-2.834,1.794-2.834,1.794h-28.149s-3.314-.074-4.175,2.743-1.111,6.566.731,8.529,6.063,1.983,6.063,1.983h46.969s2.291-.49,2.782-1.964-.818-3.927-.818-3.927l-11.129-30.6a6.993,6.993,0,0,1-.362-4.593c.777-2.046,3.471-3.59,3.471-3.59s21.221-12.461,22.912-12.93,3.273,2.129,3.273,2.129l5.728,18.984s.614,2.905,2.455,4.091,4.909.654,4.909.654,26.631-5.312,29.458-6.545,3.888-3.523,3.764-5.074-1.006-2.906-3.764-3.437-22.908,3.14-22.908,3.14-2.467.679-4.052-.44-2.289-4.035-2.289-4.035l-6.1-20.431a10.1,10.1,0,0,0-2.375-3.98,22.061,22.061,0,0,0-4.825-3.385S1678.023,2493.778,1672.262,2493.439Z" transform="translate(-1591.677 -2467.628)"/>
    <path id="Path_11" data-name="Path 11" d="M1634.856,2852.994a7.353,7.353,0,0,0-1.261,2.923,6.235,6.235,0,0,0,.516,2.979l4.183,5.616a7.287,7.287,0,0,0,3.151,1.031,4.985,4.985,0,0,0,2.75-1.031l28.765-22.634s.329-.875,0-1.319-1.318-.458-1.318-.458l-15.643.458a19.9,19.9,0,0,0-2.808.459,12.069,12.069,0,0,0-2.292.86Z" transform="translate(-1594.752 -2719.923)"/>
    <rect id="Rectangle_1327" data-name="Rectangle 1327" width="66.973" height="3.811" rx="1.906" transform="translate(0 51.545)" fill="#1fd364"/>
    <rect id="Rectangle_1328" data-name="Rectangle 1328" width="50.638" height="3.811" rx="1.906" transform="translate(6.806 59.168)" fill="#1fd364"/>
    <rect id="Rectangle_1329" data-name="Rectangle 1329" width="40.565" height="3.811" rx="1.906" transform="translate(12.796 66.79)" fill="#1fd364"/>
    <path id="Path_16" data-name="Path 16" d="M24.933,46.627a4.253,4.253,0,0,0-1.657-3.6,21.739,21.739,0,0,0-5.967-2.652,42.3,42.3,0,0,1-6.823-2.749q-6.851-3.7-6.851-9.972a9.712,9.712,0,0,1,1.837-5.815,11.982,11.982,0,0,1,5.276-3.992,19.858,19.858,0,0,1,7.721-1.436,18.075,18.075,0,0,1,7.679,1.561,12.228,12.228,0,0,1,5.235,4.406,11.529,11.529,0,0,1,1.865,6.464H24.96a5.423,5.423,0,0,0-1.74-4.3,7.154,7.154,0,0,0-4.889-1.533,7.643,7.643,0,0,0-4.724,1.284,4.051,4.051,0,0,0-1.685,3.384A3.88,3.88,0,0,0,13.9,30.965a22.314,22.314,0,0,0,5.815,2.486q7.072,2.127,10.3,5.276a10.507,10.507,0,0,1,3.232,7.845,9.679,9.679,0,0,1-3.95,8.19q-3.95,2.97-10.635,2.97a20.537,20.537,0,0,1-8.453-1.7,13.376,13.376,0,0,1-5.815-4.655,11.92,11.92,0,0,1-2-6.851h8.315q0,6.657,7.956,6.657a7.739,7.739,0,0,0,4.613-1.2A3.909,3.909,0,0,0,24.933,46.627Zm24.253-1.436-2.873,2.873v9.116H38.33V14.75h7.983V38.257l1.547-1.989,7.652-8.978H65.1L54.3,39.749l11.74,17.43H56.865ZM76.975,57.179H68.964V27.291h8.011Zm-8.48-37.623A3.931,3.931,0,0,1,69.7,16.6a5.178,5.178,0,0,1,6.533,0,3.909,3.909,0,0,1,1.215,2.956,3.919,3.919,0,0,1-1.229,2.983,5.12,5.12,0,0,1-6.491,0A3.919,3.919,0,0,1,68.495,19.556Zm23.48,37.623H83.964V14.75h8.011Zm15,0H98.963V14.75h8.011Zm22.762-8.259a2.572,2.572,0,0,0-1.45-2.307,16.473,16.473,0,0,0-4.655-1.505q-10.663-2.237-10.663-9.06a8.213,8.213,0,0,1,3.3-6.643,13.316,13.316,0,0,1,8.632-2.666q5.69,0,9.1,2.679a8.444,8.444,0,0,1,3.411,6.961h-7.983a3.863,3.863,0,0,0-1.1-2.831,4.676,4.676,0,0,0-3.453-1.119,4.778,4.778,0,0,0-3.121.912,2.878,2.878,0,0,0-1.1,2.32A2.46,2.46,0,0,0,121.9,37.8a12.93,12.93,0,0,0,4.24,1.409,34.635,34.635,0,0,1,5.027,1.34q6.326,2.32,6.326,8.038A7.8,7.8,0,0,1,133.99,55.2a15.133,15.133,0,0,1-9.06,2.528,15.806,15.806,0,0,1-6.671-1.34,11.193,11.193,0,0,1-4.572-3.674,8.536,8.536,0,0,1-1.657-5.041H119.6a4.168,4.168,0,0,0,1.575,3.26,6.245,6.245,0,0,0,3.923,1.133,5.78,5.78,0,0,0,3.467-.87A2.708,2.708,0,0,0,129.736,48.92Z" transform="translate(191.143 68.853)" fill="#1fd364"/>
    <rect id="Rectangle_1327-2" data-name="Rectangle 1327" width="66.973" height="3.811" rx="1.906" transform="translate(0 51.545)" fill="#1fd364"/>
    <rect id="Rectangle_1328-2" data-name="Rectangle 1328" width="50.638" height="3.811" rx="1.906" transform="translate(6.806 59.168)" fill="#1fd364"/>
    <rect id="Rectangle_1329-2" data-name="Rectangle 1329" width="40.565" height="3.811" rx="1.906" transform="translate(12.796 66.79)" fill="#1fd364"/>
    <path id="Path_17" data-name="Path 17" d="M15.335-51.04,25.666-21.87,35.942-51.04H46.826v40.22H38.511V-21.815l.829-18.977L28.484-10.821h-5.69L11.965-40.764l.829,18.95v10.994H4.507V-51.04Zm55.523,40.22a8.865,8.865,0,0,1-.8-2.679,9.659,9.659,0,0,1-7.541,3.232,10.612,10.612,0,0,1-7.279-2.541,8.173,8.173,0,0,1-2.887-6.409,8.446,8.446,0,0,1,3.522-7.293q3.522-2.541,10.179-2.569h3.674v-1.713a4.925,4.925,0,0,0-1.063-3.315,4.184,4.184,0,0,0-3.356-1.243,4.757,4.757,0,0,0-3.163.967A3.284,3.284,0,0,0,61-31.731H53.013a8.019,8.019,0,0,1,1.6-4.806A10.59,10.59,0,0,1,59.146-40a16.51,16.51,0,0,1,6.574-1.257q5.525,0,8.77,2.776a9.712,9.712,0,0,1,3.246,7.8v12.955a14.289,14.289,0,0,0,1.188,6.436v.47Zm-6.6-5.552a6.876,6.876,0,0,0,3.26-.787,5.171,5.171,0,0,0,2.21-2.113v-5.138H66.742q-5.994,0-6.381,4.143l-.028.47a3.2,3.2,0,0,0,1.05,2.458A4.077,4.077,0,0,0,64.256-16.373Zm36.408-16.85a21.689,21.689,0,0,0-2.873-.221q-4.53,0-5.939,3.066v19.557H83.869V-40.709H91.41l.221,3.563a7.4,7.4,0,0,1,6.657-4.116,8.365,8.365,0,0,1,2.486.359Zm20.331,22.4a8.866,8.866,0,0,1-.8-2.679,9.659,9.659,0,0,1-7.541,3.232,10.612,10.612,0,0,1-7.279-2.541,8.173,8.173,0,0,1-2.887-6.409,8.446,8.446,0,0,1,3.522-7.293q3.522-2.541,10.179-2.569h3.674v-1.713a4.925,4.925,0,0,0-1.063-3.315,4.184,4.184,0,0,0-3.356-1.243,4.757,4.757,0,0,0-3.163.967,3.284,3.284,0,0,0-1.146,2.652H103.15a8.019,8.019,0,0,1,1.6-4.806A10.59,10.59,0,0,1,109.282-40a16.51,16.51,0,0,1,6.574-1.257q5.525,0,8.77,2.776a9.712,9.712,0,0,1,3.246,7.8v12.955a14.289,14.289,0,0,0,1.188,6.436v.47Zm-6.6-5.552a6.876,6.876,0,0,0,3.26-.787,5.171,5.171,0,0,0,2.21-2.113v-5.138h-2.983q-5.994,0-6.381,4.143l-.028.47a3.2,3.2,0,0,0,1.05,2.458A4.077,4.077,0,0,0,114.392-16.373Zm29.17-31.684v7.348h5.11v5.856h-5.11v14.917a3.562,3.562,0,0,0,.635,2.376,3.191,3.191,0,0,0,2.431.718,12.731,12.731,0,0,0,2.348-.193v6.05a16.434,16.434,0,0,1-4.834.718q-8.4,0-8.563-8.48v-16.1h-4.365v-5.856h4.365v-7.348ZM160.91-37.449a9.964,9.964,0,0,1,7.983-3.812q9.723,0,9.862,11.3v19.143h-7.983V-29.786a5.575,5.575,0,0,0-1.1-3.807,4.731,4.731,0,0,0-3.674-1.232,5.431,5.431,0,0,0-5.083,2.713v21.292h-7.983V-53.25h7.983Zm22.624,11.408a17.725,17.725,0,0,1,1.713-7.928,12.537,12.537,0,0,1,4.931-5.387,14.386,14.386,0,0,1,7.472-1.906,13.61,13.61,0,0,1,9.875,3.7,14.856,14.856,0,0,1,4.268,10.055l.055,2.044q0,6.878-3.84,11.036a13.346,13.346,0,0,1-10.3,4.157,13.413,13.413,0,0,1-10.317-4.144q-3.854-4.144-3.853-11.27Zm7.983.567a11.172,11.172,0,0,0,1.6,6.515A5.285,5.285,0,0,0,197.7-16.7a5.3,5.3,0,0,0,4.53-2.227q1.63-2.227,1.63-7.124a11.061,11.061,0,0,0-1.63-6.474,5.3,5.3,0,0,0-4.586-2.3,5.211,5.211,0,0,0-4.53,2.282Q191.517-30.26,191.517-25.474Zm32.6-15.235.249,3.453a10.435,10.435,0,0,1,8.591-4.005q4.751,0,7.072,2.79t2.376,8.342v19.309h-7.983V-29.98a5.2,5.2,0,0,0-1.1-3.7,4.939,4.939,0,0,0-3.674-1.149,5.49,5.49,0,0,0-5.055,2.879v21.125H216.6V-40.709Z" transform="translate(190.713 82.671)"/>
  </g>
</svg>
